<svg xmlns="http://www.w3.org/2000/svg" version="1.1" xmlns:xlink="http://www.w3.org/1999/xlink" xmlns:svgjs="http://svgjs.dev/svgjs" viewBox="0 0 800 800" preserveAspectRatio="xMidYMid slice"><defs><pattern id="pppixelate-pattern" width="20" height="20" patternUnits="userSpaceOnUse" patternTransform="scale(20) rotate(0)" shape-rendering="crispEdges">
    <rect width="1" height="1" x="18" y="2" fill="#d4af37"></rect><rect width="1" height="1" x="5" y="3" fill="#e8b923"></rect><rect width="1" height="1" x="17" y="3" fill="#d4af37"></rect><rect width="1" height="1" x="4" y="4" fill="#e8b923"></rect><rect width="1" height="1" x="5" y="4" fill="hsl(205, 55%, 74%)"></rect><rect width="1" height="1" x="6" y="4" fill="#e8b923"></rect><rect width="1" height="1" x="11" y="4" fill="#e8b923"></rect><rect width="1" height="1" x="12" y="4" fill="#e8b923"></rect><rect width="1" height="1" x="13" y="4" fill="#e8b923"></rect><rect width="1" height="1" x="16" y="4" fill="#d4af37"></rect><rect width="1" height="1" x="3" y="5" fill="#e8b923"></rect><rect width="1" height="1" x="4" y="5" fill="hsl(205, 55%, 74%)"></rect><rect width="1" height="1" x="5" y="5" fill="#e8b923"></rect><rect width="1" height="1" x="6" y="5" fill="hsl(205, 95%, 51%)"></rect><rect width="1" height="1" x="7" y="5" fill="#e8b923"></rect><rect width="1" height="1" x="11" y="5" fill="#e8b923"></rect><rect width="1" height="1" x="12" y="5" fill="hsl(205, 66%, 68%)"></rect><rect width="1" height="1" x="13" y="5" fill="hsl(205, 66%, 68%)"></rect><rect width="1" height="1" x="14" y="5" fill="#e8b923"></rect><rect width="1" height="1" x="15" y="5" fill="#d4af37"></rect><rect width="1" height="1" x="2" y="6" fill="#d4af37"></rect><rect width="1" height="1" x="3" y="6" fill="hsl(205, 55%, 74%)"></rect><rect width="1" height="1" x="4" y="6" fill="#e8b923"></rect><rect width="1" height="1" x="5" y="6" fill="hsl(205, 95%, 51%)"></rect><rect width="1" height="1" x="6" y="6" fill="#e8b923"></rect><rect width="1" height="1" x="7" y="6" fill="hsl(205, 45%, 45%)"></rect><rect width="1" height="1" x="8" y="6" fill="#e8b923"></rect><rect width="1" height="1" x="11" y="6" fill="#e8b923"></rect><rect width="1" height="1" x="12" y="6" fill="hsl(205, 54%, 92%)"></rect><rect width="1" height="1" x="13" y="6" fill="hsl(205, 62%, 82%)"></rect><rect width="1" height="1" x="14" y="6" fill="hsl(205, 54%, 92%)"></rect><rect width="1" height="1" x="15" y="6" fill="#e8b923"></rect><rect width="1" height="1" x="1" y="7" fill="#e8b923"></rect><rect width="1" height="1" x="2" y="7" fill="hsl(205, 55%, 74%)"></rect><rect width="1" height="1" x="3" y="7" fill="#e8b923"></rect><rect width="1" height="1" x="4" y="7" fill="hsl(205, 95%, 51%)"></rect><rect width="1" height="1" x="5" y="7" fill="#e8b923"></rect><rect width="1" height="1" x="6" y="7" fill="hsl(205, 45%, 45%)"></rect><rect width="1" height="1" x="7" y="7" fill="#e8b923"></rect><rect width="1" height="1" x="11" y="7" fill="#e8b923"></rect><rect width="1" height="1" x="12" y="7" fill="hsl(205, 62%, 82%)"></rect><rect width="1" height="1" x="13" y="7" fill="hsl(205, 54%, 92%)"></rect><rect width="1" height="1" x="14" y="7" fill="hsl(205, 62%, 82%)"></rect><rect width="1" height="1" x="15" y="7" fill="hsl(205, 66%, 68%)"></rect><rect width="1" height="1" x="16" y="7" fill="#e8b923"></rect><rect width="1" height="1" x="2" y="8" fill="#e8b923"></rect><rect width="1" height="1" x="3" y="8" fill="hsl(205, 95%, 51%)"></rect><rect width="1" height="1" x="4" y="8" fill="#e8b923"></rect><rect width="1" height="1" x="5" y="8" fill="hsl(205, 45%, 45%)"></rect><rect width="1" height="1" x="6" y="8" fill="#e8b923"></rect><rect width="1" height="1" x="9" y="8" fill="#e8b923"></rect><rect width="1" height="1" x="10" y="8" fill="#d4af37"></rect><rect width="1" height="1" x="11" y="8" fill="hsl(205, 95%, 51%)"></rect><rect width="1" height="1" x="12" y="8" fill="#e8b923"></rect><rect width="1" height="1" x="13" y="8" fill="hsl(205, 66%, 68%)"></rect><rect width="1" height="1" x="14" y="8" fill="hsl(205, 66%, 68%)"></rect><rect width="1" height="1" x="15" y="8" fill="hsl(205, 66%, 68%)"></rect><rect width="1" height="1" x="16" y="8" fill="#e8b923"></rect><rect width="1" height="1" x="3" y="9" fill="#e8b923"></rect><rect width="1" height="1" x="4" y="9" fill="hsl(205, 45%, 45%)"></rect><rect width="1" height="1" x="5" y="9" fill="#e8b923"></rect><rect width="1" height="1" x="8" y="9" fill="#e8b923"></rect><rect width="1" height="1" x="9" y="9" fill="#67c8d4"></rect><rect width="1" height="1" x="10" y="9" fill="hsl(0, 0%, 100%)"></rect><rect width="1" height="1" x="11" y="9" fill="#e8b923"></rect><rect width="1" height="1" x="12" y="9" fill="hsl(205, 95%, 51%)"></rect><rect width="1" height="1" x="13" y="9" fill="#e8b923"></rect><rect width="1" height="1" x="14" y="9" fill="#e8b923"></rect><rect width="1" height="1" x="15" y="9" fill="#e8b923"></rect><rect width="1" height="1" x="16" y="9" fill="#e8b923"></rect><rect width="1" height="1" x="4" y="10" fill="#e8b923"></rect><rect width="1" height="1" x="6" y="10" fill="#d4af37"></rect><rect width="1" height="1" x="7" y="10" fill="#e8b923"></rect><rect width="1" height="1" x="8" y="10" fill="hsl(205, 62%, 82%)"></rect><rect width="1" height="1" x="9" y="10" fill="#e8b923"></rect><rect width="1" height="1" x="10" y="10" fill="#67c8d4"></rect><rect width="1" height="1" x="11" y="10" fill="hsl(205, 66%, 68%)"></rect><rect width="1" height="1" x="12" y="10" fill="#d4af37"></rect><rect width="1" height="1" x="6" y="11" fill="#e8b923"></rect><rect width="1" height="1" x="7" y="11" fill="hsl(205, 62%, 82%)"></rect><rect width="1" height="1" x="8" y="11" fill="hsl(205, 62%, 82%)"></rect><rect width="1" height="1" x="9" y="11" fill="hsl(205, 62%, 82%)"></rect><rect width="1" height="1" x="10" y="11" fill="#e8b923"></rect><rect width="1" height="1" x="11" y="11" fill="hsl(205, 66%, 68%)"></rect><rect width="1" height="1" x="12" y="11" fill="#e8b923"></rect><rect width="1" height="1" x="5" y="12" fill="#e8b923"></rect><rect width="1" height="1" x="6" y="12" fill="hsl(205, 62%, 82%)"></rect><rect width="1" height="1" x="7" y="12" fill="hsl(205, 54%, 92%)"></rect><rect width="1" height="1" x="8" y="12" fill="hsl(205, 62%, 82%)"></rect><rect width="1" height="1" x="9" y="12" fill="hsl(205, 66%, 68%)"></rect><rect width="1" height="1" x="10" y="12" fill="hsl(205, 66%, 68%)"></rect><rect width="1" height="1" x="11" y="12" fill="#e8b923"></rect><rect width="1" height="1" x="14" y="12" fill="#e8b923"></rect><rect width="1" height="1" x="4" y="13" fill="#e8b923"></rect><rect width="1" height="1" x="5" y="13" fill="hsl(205, 62%, 82%)"></rect><rect width="1" height="1" x="6" y="13" fill="hsl(205, 54%, 92%)"></rect><rect width="1" height="1" x="7" y="13" fill="hsl(205, 62%, 82%)"></rect><rect width="1" height="1" x="8" y="13" fill="hsl(205, 66%, 68%)"></rect><rect width="1" height="1" x="9" y="13" fill="hsl(205, 66%, 68%)"></rect><rect width="1" height="1" x="10" y="13" fill="#e8b923"></rect><rect width="1" height="1" x="13" y="13" fill="#e8b923"></rect><rect width="1" height="1" x="14" y="13" fill="hsl(205, 45%, 45%)"></rect><rect width="1" height="1" x="15" y="13" fill="#e8b923"></rect><rect width="1" height="1" x="3" y="14" fill="#e8b923"></rect><rect width="1" height="1" x="4" y="14" fill="hsl(205, 62%, 82%)"></rect><rect width="1" height="1" x="5" y="14" fill="hsl(205, 54%, 92%)"></rect><rect width="1" height="1" x="6" y="14" fill="hsl(205, 62%, 82%)"></rect><rect width="1" height="1" x="7" y="14" fill="hsl(205, 66%, 68%)"></rect><rect width="1" height="1" x="8" y="14" fill="hsl(205, 66%, 68%)"></rect><rect width="1" height="1" x="9" y="14" fill="#e8b923"></rect><rect width="1" height="1" x="10" y="14" fill="#d4af37"></rect><rect width="1" height="1" x="12" y="14" fill="#e8b923"></rect><rect width="1" height="1" x="13" y="14" fill="hsl(205, 45%, 45%)"></rect><rect width="1" height="1" x="14" y="14" fill="#e8b923"></rect><rect width="1" height="1" x="15" y="14" fill="hsl(205, 95%, 51%)"></rect><rect width="1" height="1" x="16" y="14" fill="#e8b923"></rect><rect width="1" height="1" x="2" y="15" fill="#e8b923"></rect><rect width="1" height="1" x="3" y="15" fill="hsl(205, 95%, 51%)"></rect><rect width="1" height="1" x="4" y="15" fill="#d4af37"></rect><rect width="1" height="1" x="5" y="15" fill="hsl(205, 62%, 82%)"></rect><rect width="1" height="1" x="6" y="15" fill="hsl(205, 66%, 68%)"></rect><rect width="1" height="1" x="7" y="15" fill="hsl(205, 66%, 68%)"></rect><rect width="1" height="1" x="8" y="15" fill="#e8b923"></rect><rect width="1" height="1" x="11" y="15" fill="#e8b923"></rect><rect width="1" height="1" x="12" y="15" fill="hsl(205, 45%, 45%)"></rect><rect width="1" height="1" x="13" y="15" fill="#e8b923"></rect><rect width="1" height="1" x="14" y="15" fill="hsl(205, 95%, 51%)"></rect><rect width="1" height="1" x="15" y="15" fill="#e8b923"></rect><rect width="1" height="1" x="16" y="15" fill="hsl(205, 55%, 74%)"></rect><rect width="1" height="1" x="17" y="15" fill="#e8b923"></rect><rect width="1" height="1" x="2" y="16" fill="#e8b923"></rect><rect width="1" height="1" x="3" y="16" fill="hsl(205, 95%, 51%)"></rect><rect width="1" height="1" x="4" y="16" fill="hsl(205, 95%, 51%)"></rect><rect width="1" height="1" x="5" y="16" fill="#d4af37"></rect><rect width="1" height="1" x="6" y="16" fill="hsl(205, 66%, 68%)"></rect><rect width="1" height="1" x="7" y="16" fill="#e8b923"></rect><rect width="1" height="1" x="10" y="16" fill="#e8b923"></rect><rect width="1" height="1" x="11" y="16" fill="hsl(205, 45%, 45%)"></rect><rect width="1" height="1" x="12" y="16" fill="#e8b923"></rect><rect width="1" height="1" x="13" y="16" fill="hsl(205, 95%, 51%)"></rect><rect width="1" height="1" x="14" y="16" fill="#e8b923"></rect><rect width="1" height="1" x="15" y="16" fill="hsl(205, 55%, 74%)"></rect><rect width="1" height="1" x="16" y="16" fill="#e8b923"></rect><rect width="1" height="1" x="3" y="17" fill="#e8b923"></rect><rect width="1" height="1" x="4" y="17" fill="hsl(205, 95%, 51%)"></rect><rect width="1" height="1" x="5" y="17" fill="hsl(205, 95%, 51%)"></rect><rect width="1" height="1" x="6" y="17" fill="#e8b923"></rect><rect width="1" height="1" x="11" y="17" fill="#e8b923"></rect><rect width="1" height="1" x="12" y="17" fill="hsl(205, 95%, 51%)"></rect><rect width="1" height="1" x="13" y="17" fill="#e8b923"></rect><rect width="1" height="1" x="14" y="17" fill="hsl(205, 55%, 74%)"></rect><rect width="1" height="1" x="15" y="17" fill="#e8b923"></rect><rect width="1" height="1" x="4" y="18" fill="#e8b923"></rect><rect width="1" height="1" x="5" y="18" fill="#e8b923"></rect><rect width="1" height="1" x="12" y="18" fill="#e8b923"></rect><rect width="1" height="1" x="13" y="18" fill="hsl(205, 55%, 74%)"></rect><rect width="1" height="1" x="14" y="18" fill="#e8b923"></rect><rect width="1" height="1" x="13" y="19" fill="#e8b923"></rect>
  </pattern></defs><rect width="100%" height="100%" fill="url(#pppixelate-pattern)"></rect></svg>