<?xml version="1.0" encoding="utf-8"?>
<svg viewBox="0 0 800 800" width="800" height="800" xmlns="http://www.w3.org/2000/svg">
  <defs>
    <pattern id="pppixelate-pattern" width="20" height="20" patternUnits="userSpaceOnUse" patternTransform="matrix(40.590948, 0, 0, 40.590948, 0, 0)" shape-rendering="crispEdges">
      <rect width="1" height="1" x="7" y="1" fill="hsl(50, 100%, 86%)"/>
      <rect width="1" height="1" x="8" y="1" fill="hsl(50, 100%, 86%)"/>
      <rect width="1" height="1" x="9" y="1" fill="hsl(50, 100%, 86%)"/>
      <rect width="1" height="1" x="10" y="1" fill="hsl(50, 100%, 86%)"/>
      <rect width="1" height="1" x="11" y="1" fill="hsl(50, 100%, 86%)"/>
      <rect width="1" height="1" x="12" y="1" fill="hsl(50, 100%, 86%)"/>
      <rect width="1" height="1" x="6" y="2" fill="hsl(50, 100%, 86%)"/>
      <rect width="1" height="1" x="7" y="2" fill="hsl(184, 100%, 48%)"/>
      <rect width="1" height="1" x="8" y="2" fill="hsl(184, 100%, 48%)"/>
      <rect width="1" height="1" x="9" y="2" fill="hsl(184, 100%, 48%)"/>
      <rect width="1" height="1" x="10" y="2" fill="hsl(184, 100%, 48%)"/>
      <rect width="1" height="1" x="11" y="2" fill="hsl(184, 100%, 48%)"/>
      <rect width="1" height="1" x="12" y="2" fill="hsl(184, 100%, 48%)"/>
      <rect width="1" height="1" x="13" y="2" fill="hsl(50, 100%, 86%)"/>
      <rect width="1" height="1" x="5" y="3" fill="hsl(50, 100%, 86%)"/>
      <rect width="1" height="1" x="6" y="3" fill="hsl(184, 100%, 48%)"/>
      <rect width="1" height="1" x="7" y="3" fill="hsl(314, 100%, 66%)"/>
      <rect width="1" height="1" x="8" y="3" fill="hsl(314, 100%, 66%)"/>
      <rect width="1" height="1" x="9" y="3" fill="hsl(162, 97%, 48%)"/>
      <rect width="1" height="1" x="10" y="3" fill="hsl(164, 73%, 69%)"/>
      <rect width="1" height="1" x="11" y="3" fill="hsl(153, 99%, 47%)"/>
      <rect width="1" height="1" x="12" y="3" fill="hsl(171, 73%, 76%)"/>
      <rect width="1" height="1" x="13" y="3" fill="hsl(184, 100%, 48%)"/>
      <rect width="1" height="1" x="14" y="3" fill="hsl(50, 100%, 86%)"/>
      <rect width="1" height="1" x="4" y="4" fill="hsl(50, 100%, 86%)"/>
      <rect width="1" height="1" x="5" y="4" fill="hsl(184, 100%, 48%)"/>
      <rect width="1" height="1" x="6" y="4" fill="hsl(184, 100%, 48%)"/>
      <rect width="1" height="1" x="7" y="4" fill="hsl(171, 73%, 76%)"/>
      <rect width="1" height="1" x="8" y="4" fill="hsl(171, 96%, 57%)"/>
      <rect width="1" height="1" x="9" y="4" fill="hsl(156, 78%, 54%)"/>
      <rect width="1" height="1" x="10" y="4" fill="hsl(171, 100%, 42%)"/>
      <rect width="1" height="1" x="11" y="4" fill="hsl(314, 100%, 58%)"/>
      <rect width="1" height="1" x="12" y="4" fill="hsl(314, 100%, 66%)"/>
      <rect width="1" height="1" x="13" y="4" fill="hsl(184, 100%, 48%)"/>
      <rect width="1" height="1" x="14" y="4" fill="hsl(184, 100%, 48%)"/>
      <rect width="1" height="1" x="15" y="4" fill="hsl(50, 100%, 86%)"/>
      <rect width="1" height="1" x="3" y="5" fill="hsl(50, 100%, 86%)"/>
      <rect width="1" height="1" x="4" y="5" fill="hsl(184, 100%, 48%)"/>
      <rect width="1" height="1" x="5" y="5" fill="hsl(162, 97%, 48%)"/>
      <rect width="1" height="1" x="6" y="5" fill="hsl(156, 78%, 54%)"/>
      <rect width="1" height="1" x="7" y="5" fill="hsl(171, 96%, 57%)"/>
      <rect width="1" height="1" x="8" y="5" fill="hsl(314, 100%, 58%)"/>
      <rect width="1" height="1" x="9" y="5" fill="hsl(314, 100%, 66%)"/>
      <rect width="1" height="1" x="10" y="5" fill="hsl(171, 73%, 76%)"/>
      <rect width="1" height="1" x="11" y="5" fill="hsl(314, 100%, 66%)"/>
      <rect width="1" height="1" x="12" y="5" fill="hsl(314, 100%, 66%)"/>
      <rect width="1" height="1" x="13" y="5" fill="hsl(162, 97%, 48%)"/>
      <rect width="1" height="1" x="14" y="5" fill="hsl(156, 78%, 54%)"/>
      <rect width="1" height="1" x="15" y="5" fill="hsl(184, 100%, 48%)"/>
      <rect width="1" height="1" x="16" y="5" fill="hsl(50, 100%, 86%)"/>
      <rect width="1" height="1" x="2" y="6" fill="hsl(50, 100%, 86%)"/>
      <rect width="1" height="1" x="3" y="6" fill="hsl(184, 100%, 48%)"/>
      <rect width="1" height="1" x="4" y="6" fill="hsl(184, 100%, 48%)"/>
      <rect width="1" height="1" x="5" y="6" fill="hsl(314, 100%, 66%)"/>
      <rect width="1" height="1" x="6" y="6" fill="hsl(314, 100%, 66%)"/>
      <rect width="1" height="1" x="7" y="6" fill="hsl(171, 100%, 42%)"/>
      <rect width="1" height="1" x="8" y="6" fill="hsl(314, 100%, 66%)"/>
      <rect width="1" height="1" x="9" y="6" fill="hsl(314, 100%, 66%)"/>
      <rect width="1" height="1" x="10" y="6" fill="hsl(153, 99%, 47%)"/>
      <rect width="1" height="1" x="11" y="6" fill="hsl(171, 100%, 42%)"/>
      <rect width="1" height="1" x="12" y="6" fill="hsl(164, 73%, 69%)"/>
      <rect width="1" height="1" x="13" y="6" fill="hsl(162, 97%, 48%)"/>
      <rect width="1" height="1" x="14" y="6" fill="hsl(314, 100%, 66%)"/>
      <rect width="1" height="1" x="15" y="6" fill="hsl(184, 100%, 48%)"/>
      <rect width="1" height="1" x="16" y="6" fill="hsl(184, 100%, 48%)"/>
      <rect width="1" height="1" x="17" y="6" fill="hsl(50, 100%, 86%)"/>
      <rect width="1" height="1" x="2" y="7" fill="hsl(50, 100%, 86%)"/>
      <rect width="1" height="1" x="3" y="7" fill="hsl(184, 100%, 48%)"/>
      <rect width="1" height="1" x="4" y="7" fill="hsl(162, 97%, 48%)"/>
      <rect width="1" height="1" x="5" y="7" fill="hsl(314, 100%, 58%)"/>
      <rect width="1" height="1" x="6" y="7" fill="hsl(314, 100%, 66%)"/>
      <rect width="1" height="1" x="7" y="7" fill="hsl(171, 73%, 76%)"/>
      <rect width="1" height="1" x="8" y="7" fill="hsl(171, 73%, 76%)"/>
      <rect width="1" height="1" x="9" y="7" fill="hsl(162, 97%, 48%)"/>
      <rect width="1" height="1" x="10" y="7" fill="hsl(153, 99%, 47%)"/>
      <rect width="1" height="1" x="11" y="7" fill="hsl(162, 97%, 48%)"/>
      <rect width="1" height="1" x="12" y="7" fill="hsl(171, 96%, 57%)"/>
      <rect width="1" height="1" x="13" y="7" fill="hsl(156, 78%, 54%)"/>
      <rect width="1" height="1" x="14" y="7" fill="hsl(314, 100%, 58%)"/>
      <rect width="1" height="1" x="15" y="7" fill="hsl(314, 100%, 66%)"/>
      <rect width="1" height="1" x="16" y="7" fill="hsl(184, 100%, 48%)"/>
      <rect width="1" height="1" x="17" y="7" fill="hsl(50, 100%, 86%)"/>
      <rect width="1" height="1" x="2" y="8" fill="hsl(50, 100%, 86%)"/>
      <rect width="1" height="1" x="3" y="8" fill="hsl(184, 100%, 48%)"/>
      <rect width="1" height="1" x="4" y="8" fill="hsl(162, 97%, 48%)"/>
      <rect width="1" height="1" x="5" y="8" fill="hsl(156, 78%, 54%)"/>
      <rect width="1" height="1" x="6" y="8" fill="hsl(171, 100%, 42%)"/>
      <rect width="1" height="1" x="7" y="8" fill="hsl(156, 78%, 54%)"/>
      <rect width="1" height="1" x="8" y="8" fill="hsl(171, 100%, 42%)"/>
      <rect width="1" height="1" x="9" y="8" fill="hsl(314, 100%, 58%)"/>
      <rect width="1" height="1" x="10" y="8" fill="hsl(314, 100%, 58%)"/>
      <rect width="1" height="1" x="11" y="8" fill="hsl(171, 73%, 76%)"/>
      <rect width="1" height="1" x="12" y="8" fill="hsl(164, 73%, 69%)"/>
      <rect width="1" height="1" x="13" y="8" fill="hsl(153, 99%, 47%)"/>
      <rect width="1" height="1" x="14" y="8" fill="hsl(171, 73%, 76%)"/>
      <rect width="1" height="1" x="15" y="8" fill="hsl(153, 99%, 47%)"/>
      <rect width="1" height="1" x="16" y="8" fill="hsl(184, 100%, 48%)"/>
      <rect width="1" height="1" x="17" y="8" fill="hsl(50, 100%, 86%)"/>
      <rect width="1" height="1" x="2" y="9" fill="hsl(50, 100%, 86%)"/>
      <rect width="1" height="1" x="3" y="9" fill="hsl(184, 100%, 48%)"/>
      <rect width="1" height="1" x="4" y="9" fill="hsl(184, 100%, 48%)"/>
      <rect width="1" height="1" x="5" y="9" fill="hsl(171, 73%, 76%)"/>
      <rect width="1" height="1" x="6" y="9" fill="hsl(153, 99%, 47%)"/>
      <rect width="1" height="1" x="7" y="9" fill="hsl(171, 100%, 42%)"/>
      <rect width="1" height="1" x="8" y="9" fill="hsl(171, 100%, 42%)"/>
      <rect width="1" height="1" x="9" y="9" fill="hsl(314, 100%, 66%)"/>
      <rect width="1" height="1" x="10" y="9" fill="hsl(314, 100%, 66%)"/>
      <rect width="1" height="1" x="11" y="9" fill="hsl(171, 100%, 42%)"/>
      <rect width="1" height="1" x="12" y="9" fill="hsl(314, 100%, 66%)"/>
      <rect width="1" height="1" x="13" y="9" fill="hsl(314, 100%, 66%)"/>
      <rect width="1" height="1" x="14" y="9" fill="hsl(153, 99%, 47%)"/>
      <rect width="1" height="1" x="15" y="9" fill="hsl(184, 100%, 48%)"/>
      <rect width="1" height="1" x="16" y="9" fill="hsl(184, 100%, 48%)"/>
      <rect width="1" height="1" x="17" y="9" fill="hsl(50, 100%, 86%)"/>
      <rect width="1" height="1" x="3" y="10" fill="hsl(50, 100%, 86%)"/>
      <rect width="1" height="1" x="4" y="10" fill="hsl(184, 100%, 48%)"/>
      <rect width="1" height="1" x="5" y="10" fill="hsl(184, 100%, 48%)"/>
      <rect width="1" height="1" x="6" y="10" fill="hsl(314, 100%, 58%)"/>
      <rect width="1" height="1" x="7" y="10" fill="hsl(314, 100%, 66%)"/>
      <rect width="1" height="1" x="8" y="10" fill="hsl(171, 100%, 42%)"/>
      <rect width="1" height="1" x="9" y="10" fill="hsl(171, 100%, 42%)"/>
      <rect width="1" height="1" x="10" y="10" fill="hsl(153, 99%, 47%)"/>
      <rect width="1" height="1" x="11" y="10" fill="hsl(171, 100%, 42%)"/>
      <rect width="1" height="1" x="12" y="10" fill="hsl(314, 100%, 66%)"/>
      <rect width="1" height="1" x="13" y="10" fill="hsl(314, 100%, 58%)"/>
      <rect width="1" height="1" x="14" y="10" fill="hsl(184, 100%, 48%)"/>
      <rect width="1" height="1" x="15" y="10" fill="hsl(184, 100%, 48%)"/>
      <rect width="1" height="1" x="16" y="10" fill="hsl(50, 100%, 86%)"/>
      <rect width="1" height="1" x="4" y="11" fill="hsl(50, 100%, 86%)"/>
      <rect width="1" height="1" x="5" y="11" fill="hsl(184, 100%, 48%)"/>
      <rect width="1" height="1" x="6" y="11" fill="hsl(184, 100%, 48%)"/>
      <rect width="1" height="1" x="7" y="11" fill="hsl(314, 100%, 66%)"/>
      <rect width="1" height="1" x="8" y="11" fill="hsl(153, 99%, 47%)"/>
      <rect width="1" height="1" x="9" y="11" fill="hsl(164, 73%, 69%)"/>
      <rect width="1" height="1" x="10" y="11" fill="hsl(171, 73%, 76%)"/>
      <rect width="1" height="1" x="11" y="11" fill="hsl(153, 99%, 47%)"/>
      <rect width="1" height="1" x="12" y="11" fill="hsl(162, 97%, 48%)"/>
      <rect width="1" height="1" x="13" y="11" fill="hsl(184, 100%, 48%)"/>
      <rect width="1" height="1" x="14" y="11" fill="hsl(184, 100%, 48%)"/>
      <rect width="1" height="1" x="15" y="11" fill="hsl(50, 100%, 86%)"/>
      <rect width="1" height="1" x="5" y="12" fill="hsl(50, 100%, 86%)"/>
      <rect width="1" height="1" x="6" y="12" fill="hsl(184, 100%, 48%)"/>
      <rect width="1" height="1" x="7" y="12" fill="hsl(184, 100%, 48%)"/>
      <rect width="1" height="1" x="8" y="12" fill="hsl(184, 100%, 48%)"/>
      <rect width="1" height="1" x="9" y="12" fill="hsl(184, 100%, 48%)"/>
      <rect width="1" height="1" x="10" y="12" fill="hsl(184, 100%, 48%)"/>
      <rect width="1" height="1" x="11" y="12" fill="hsl(184, 100%, 48%)"/>
      <rect width="1" height="1" x="12" y="12" fill="hsl(184, 100%, 48%)"/>
      <rect width="1" height="1" x="13" y="12" fill="hsl(184, 100%, 48%)"/>
      <rect width="1" height="1" x="14" y="12" fill="hsl(50, 100%, 86%)"/>
      <rect width="1" height="1" x="6" y="13" fill="hsl(50, 100%, 86%)"/>
      <rect width="1" height="1" x="7" y="13" fill="hsl(50, 100%, 86%)"/>
      <rect width="1" height="1" x="8" y="13" fill="hsl(180, 81%, 39%)"/>
      <rect width="1" height="1" x="9" y="13" fill="hsl(150, 100%, 56%)"/>
      <rect width="1" height="1" x="10" y="13" fill="hsl(171, 100%, 51%)"/>
      <rect width="1" height="1" x="11" y="13" fill="hsl(180, 81%, 39%)"/>
      <rect width="1" height="1" x="12" y="13" fill="hsl(50, 100%, 86%)"/>
      <rect width="1" height="1" x="13" y="13" fill="hsl(50, 100%, 86%)"/>
      <rect width="1" height="1" x="7" y="14" fill="hsl(50, 100%, 86%)"/>
      <rect width="1" height="1" x="8" y="14" fill="hsl(171, 100%, 51%)"/>
      <rect width="1" height="1" x="9" y="14" fill="hsl(180, 81%, 39%)"/>
      <rect width="1" height="1" x="10" y="14" fill="hsl(180, 81%, 39%)"/>
      <rect width="1" height="1" x="11" y="14" fill="hsl(171, 100%, 51%)"/>
      <rect width="1" height="1" x="12" y="14" fill="hsl(50, 100%, 86%)"/>
      <rect width="1" height="1" x="7" y="15" fill="hsl(50, 100%, 86%)"/>
      <rect width="1" height="1" x="8" y="15" fill="hsl(180, 81%, 39%)"/>
      <rect width="1" height="1" x="9" y="15" fill="hsl(150, 100%, 56%)"/>
      <rect width="1" height="1" x="10" y="15" fill="hsl(180, 81%, 39%)"/>
      <rect width="1" height="1" x="11" y="15" fill="hsl(180, 81%, 39%)"/>
      <rect width="1" height="1" x="12" y="15" fill="hsl(50, 100%, 86%)"/>
      <rect width="1" height="1" x="7" y="16" fill="hsl(50, 100%, 86%)"/>
      <rect width="1" height="1" x="8" y="16" fill="hsl(171, 100%, 51%)"/>
      <rect width="1" height="1" x="9" y="16" fill="hsl(180, 81%, 39%)"/>
      <rect width="1" height="1" x="10" y="16" fill="hsl(171, 100%, 51%)"/>
      <rect width="1" height="1" x="11" y="16" fill="hsl(180, 81%, 39%)"/>
      <rect width="1" height="1" x="12" y="16" fill="hsl(50, 100%, 86%)"/>
      <rect width="1" height="1" x="7" y="17" fill="hsl(50, 100%, 86%)"/>
      <rect width="1" height="1" x="8" y="17" fill="hsl(180, 81%, 39%)"/>
      <rect width="1" height="1" x="9" y="17" fill="hsl(180, 81%, 39%)"/>
      <rect width="1" height="1" x="10" y="17" fill="hsl(150, 100%, 56%)"/>
      <rect width="1" height="1" x="11" y="17" fill="hsl(171, 100%, 51%)"/>
      <rect width="1" height="1" x="12" y="17" fill="hsl(50, 100%, 86%)"/>
      <rect width="1" height="1" x="8" y="18" fill="hsl(50, 100%, 86%)"/>
      <rect width="1" height="1" x="9" y="18" fill="hsl(50, 100%, 86%)"/>
      <rect width="1" height="1" x="10" y="18" fill="hsl(50, 100%, 86%)"/>
      <rect width="1" height="1" x="11" y="18" fill="hsl(50, 100%, 86%)"/>
    </pattern>
  </defs>
  <path d="M 0 0 L 773.632 44.616 L 768.055 768.078 L 27.885 790.386 L 0 0 Z" fill="url(#pppixelate-pattern)" style=""/>
  <path d="M 3897.232 -0.5 L 3897.232 1950.895 L -0.5 1950.895 L -0.5 -0.5 Z M 0.5 1949.895 L 3896.232 1949.895 L 3896.232 0.5 L 0.5 0.5 Z" style="fill: none;"/>
</svg>