<?xml version="1.0" encoding="utf-8"?>
<svg viewBox="0 0 500 500" xmlns="http://www.w3.org/2000/svg">
  <defs>
    <pattern id="pppixelate-pattern" width="20" height="20" patternUnits="userSpaceOnUse" patternTransform="matrix(60.546864, 0, 0, 60.546864, -1568.292028, -356.775562)" shape-rendering="crispEdges">
      <rect width="1" height="1" x="8" y="6" fill="hsl(50, 98%, 50%)"/>
      <rect width="1" height="1" x="9" y="6" fill="hsl(50, 98%, 50%)"/>
      <rect width="1" height="1" x="10" y="6" fill="hsl(50, 98%, 50%)"/>
      <rect width="1" height="1" x="11" y="6" fill="hsl(50, 98%, 50%)"/>
      <rect width="1" height="1" x="7" y="7" fill="hsl(50, 98%, 50%)"/>
      <rect width="1" height="1" x="8" y="7" fill="hsl(50, 98%, 50%)"/>
      <rect width="1" height="1" x="9" y="7" fill="hsl(50, 98%, 50%)"/>
      <rect width="1" height="1" x="10" y="7" fill="hsl(50, 98%, 50%)"/>
      <rect width="1" height="1" x="11" y="7" fill="hsl(50, 98%, 50%)"/>
      <rect width="1" height="1" x="12" y="7" fill="hsl(50, 98%, 50%)"/>
      <rect width="1" height="1" x="6" y="8" fill="hsl(50, 98%, 50%)"/>
      <rect width="1" height="1" x="7" y="8" fill="hsl(50, 98%, 50%)"/>
      <rect width="1" height="1" x="8" y="8" fill="hsl(0, 0%, 0%)"/>
      <rect width="1" height="1" x="9" y="8" fill="hsl(50, 98%, 50%)"/>
      <rect width="1" height="1" x="10" y="8" fill="hsl(50, 98%, 50%)"/>
      <rect width="1" height="1" x="11" y="8" fill="hsl(0, 0%, 0%)"/>
      <rect width="1" height="1" x="12" y="8" fill="hsl(50, 98%, 50%)"/>
      <rect width="1" height="1" x="13" y="8" fill="hsl(50, 98%, 50%)"/>
      <rect width="1" height="1" x="6" y="9" fill="hsl(50, 98%, 50%)"/>
      <rect width="1" height="1" x="7" y="9" fill="hsl(50, 98%, 50%)"/>
      <rect width="1" height="1" x="8" y="9" fill="hsl(0, 0%, 0%)"/>
      <rect width="1" height="1" x="9" y="9" fill="hsl(50, 98%, 50%)"/>
      <rect width="1" height="1" x="10" y="9" fill="hsl(50, 98%, 50%)"/>
      <rect width="1" height="1" x="11" y="9" fill="hsl(0, 0%, 0%)"/>
      <rect width="1" height="1" x="12" y="9" fill="hsl(50, 98%, 50%)"/>
      <rect width="1" height="1" x="13" y="9" fill="hsl(50, 98%, 50%)"/>
      <rect width="1" height="1" x="6" y="10" fill="hsl(50, 98%, 50%)"/>
      <rect width="1" height="1" x="7" y="10" fill="hsl(50, 98%, 50%)"/>
      <rect width="1" height="1" x="8" y="10" fill="hsl(50, 98%, 50%)"/>
      <rect width="1" height="1" x="9" y="10" fill="hsl(50, 98%, 50%)"/>
      <rect width="1" height="1" x="10" y="10" fill="hsl(50, 98%, 50%)"/>
      <rect width="1" height="1" x="11" y="10" fill="hsl(50, 98%, 50%)"/>
      <rect width="1" height="1" x="12" y="10" fill="hsl(50, 98%, 50%)"/>
      <rect width="1" height="1" x="13" y="10" fill="hsl(50, 98%, 50%)"/>
      <rect width="1" height="1" x="6" y="11" fill="hsl(50, 98%, 50%)"/>
      <rect width="1" height="1" x="7" y="11" fill="hsl(0, 0%, 0%)"/>
      <rect width="1" height="1" x="8" y="11" fill="hsl(50, 98%, 50%)"/>
      <rect width="1" height="1" x="9" y="11" fill="hsl(50, 98%, 50%)"/>
      <rect width="1" height="1" x="10" y="11" fill="hsl(50, 98%, 50%)"/>
      <rect width="1" height="1" x="11" y="11" fill="hsl(50, 98%, 50%)"/>
      <rect width="1" height="1" x="12" y="11" fill="hsl(0, 0%, 0%)"/>
      <rect width="1" height="1" x="13" y="11" fill="hsl(50, 98%, 50%)"/>
      <rect width="1" height="1" x="7" y="12" fill="hsl(50, 98%, 50%)"/>
      <rect width="1" height="1" x="8" y="12" fill="hsl(0, 0%, 0%)"/>
      <rect width="1" height="1" x="9" y="12" fill="hsl(0, 0%, 0%)"/>
      <rect width="1" height="1" x="10" y="12" fill="hsl(0, 0%, 0%)"/>
      <rect width="1" height="1" x="11" y="12" fill="hsl(0, 0%, 0%)"/>
      <rect width="1" height="1" x="12" y="12" fill="hsl(50, 98%, 50%)"/>
      <rect width="1" height="1" x="8" y="13" fill="hsl(50, 98%, 50%)"/>
      <rect width="1" height="1" x="9" y="13" fill="hsl(50, 98%, 50%)"/>
      <rect width="1" height="1" x="10" y="13" fill="hsl(50, 98%, 50%)"/>
      <rect width="1" height="1" x="11" y="13" fill="hsl(50, 98%, 50%)"/>
    </pattern>
  </defs>
  <rect width="5812.5" height="2736.717" fill="url(#pppixelate-pattern)" x="-1568.292" y="-356.775" style=""/>
</svg>