<?xml version="1.0" encoding="utf-8"?>
<svg viewBox="0 0 800 800" width="800" height="800" xmlns="http://www.w3.org/2000/svg">
  <defs>
    <pattern id="pppixelate-pattern" width="20" height="20" patternUnits="userSpaceOnUse" patternTransform="matrix(41.541103, 0, 0, 41.541103, -16.399477, -2.474636)" shape-rendering="crispEdges">
      <rect width="1" height="1" x="8" y="2" fill="hsl(205, 64%, 62%)"/>
      <rect width="1" height="1" x="9" y="2" fill="hsl(205, 69%, 44%)"/>
      <rect width="1" height="1" x="10" y="2" fill="hsl(205, 69%, 44%)"/>
      <rect width="1" height="1" x="11" y="2" fill="hsl(205, 64%, 62%)"/>
      <rect width="1" height="1" x="6" y="3" fill="hsl(205, 64%, 62%)"/>
      <rect width="1" height="1" x="7" y="3" fill="hsl(205, 64%, 62%)"/>
      <rect width="1" height="1" x="8" y="3" fill="hsl(205, 50%, 79%)"/>
      <rect width="1" height="1" x="9" y="3" fill="hsl(205, 50%, 79%)"/>
      <rect width="1" height="1" x="10" y="3" fill="hsl(205, 50%, 79%)"/>
      <rect width="1" height="1" x="11" y="3" fill="hsl(205, 50%, 79%)"/>
      <rect width="1" height="1" x="12" y="3" fill="hsl(205, 64%, 62%)"/>
      <rect width="1" height="1" x="13" y="3" fill="hsl(205, 64%, 62%)"/>
      <rect width="1" height="1" x="5" y="4" fill="hsl(205, 69%, 44%)"/>
      <rect width="1" height="1" x="6" y="4" fill="hsl(205, 50%, 79%)"/>
      <rect width="1" height="1" x="7" y="4" fill="hsl(205, 50%, 79%)"/>
      <rect width="1" height="1" x="8" y="4" fill="hsl(0, 0%, 100%)"/>
      <rect width="1" height="1" x="9" y="4" fill="hsl(0, 0%, 100%)"/>
      <rect width="1" height="1" x="10" y="4" fill="hsl(0, 0%, 100%)"/>
      <rect width="1" height="1" x="11" y="4" fill="hsl(0, 0%, 100%)"/>
      <rect width="1" height="1" x="12" y="4" fill="hsl(0, 0%, 100%)"/>
      <rect width="1" height="1" x="13" y="4" fill="hsl(205, 50%, 79%)"/>
      <rect width="1" height="1" x="14" y="4" fill="hsl(205, 69%, 44%)"/>
      <rect width="1" height="1" x="4" y="5" fill="hsl(205, 64%, 62%)"/>
      <rect width="1" height="1" x="5" y="5" fill="hsl(205, 50%, 79%)"/>
      <rect width="1" height="1" x="6" y="5" fill="hsl(0, 0%, 100%)"/>
      <rect width="1" height="1" x="7" y="5" fill="hsl(0, 0%, 100%)"/>
      <rect width="1" height="1" x="8" y="5" fill="hsl(0, 0%, 100%)"/>
      <rect width="1" height="1" x="9" y="5" fill="hsl(0, 0%, 100%)"/>
      <rect width="1" height="1" x="10" y="5" fill="hsl(0, 0%, 100%)"/>
      <rect width="1" height="1" x="11" y="5" fill="hsl(0, 0%, 100%)"/>
      <rect width="1" height="1" x="12" y="5" fill="hsl(205, 50%, 79%)"/>
      <rect width="1" height="1" x="13" y="5" fill="hsl(205, 64%, 62%)"/>
      <rect width="1" height="1" x="14" y="5" fill="hsl(205, 50%, 79%)"/>
      <rect width="1" height="1" x="15" y="5" fill="hsl(205, 64%, 62%)"/>
      <rect width="1" height="1" x="3" y="6" fill="hsl(205, 64%, 62%)"/>
      <rect width="1" height="1" x="4" y="6" fill="hsl(205, 50%, 79%)"/>
      <rect width="1" height="1" x="5" y="6" fill="hsl(0, 0%, 100%)"/>
      <rect width="1" height="1" x="6" y="6" fill="hsl(0, 0%, 100%)"/>
      <rect width="1" height="1" x="7" y="6" fill="hsl(0, 0%, 100%)"/>
      <rect width="1" height="1" x="8" y="6" fill="hsl(0, 0%, 100%)"/>
      <rect width="1" height="1" x="9" y="6" fill="hsl(0, 0%, 100%)"/>
      <rect width="1" height="1" x="10" y="6" fill="hsl(0, 0%, 100%)"/>
      <rect width="1" height="1" x="11" y="6" fill="hsl(205, 50%, 79%)"/>
      <rect width="1" height="1" x="12" y="6" fill="hsl(205, 69%, 44%)"/>
      <rect width="1" height="1" x="13" y="6" fill="hsl(205, 50%, 79%)"/>
      <rect width="1" height="1" x="14" y="6" fill="hsl(0, 0%, 100%)"/>
      <rect width="1" height="1" x="15" y="6" fill="hsl(205, 50%, 79%)"/>
      <rect width="1" height="1" x="16" y="6" fill="hsl(205, 64%, 62%)"/>
      <rect width="1" height="1" x="2" y="7" fill="hsl(205, 64%, 62%)"/>
      <rect width="1" height="1" x="3" y="7" fill="hsl(205, 50%, 79%)"/>
      <rect width="1" height="1" x="4" y="7" fill="hsl(0, 0%, 100%)"/>
      <rect width="1" height="1" x="5" y="7" fill="hsl(0, 0%, 100%)"/>
      <rect width="1" height="1" x="6" y="7" fill="hsl(0, 0%, 100%)"/>
      <rect width="1" height="1" x="7" y="7" fill="hsl(0, 0%, 100%)"/>
      <rect width="1" height="1" x="8" y="7" fill="hsl(0, 0%, 100%)"/>
      <rect width="1" height="1" x="9" y="7" fill="hsl(0, 0%, 100%)"/>
      <rect width="1" height="1" x="10" y="7" fill="hsl(205, 50%, 79%)"/>
      <rect width="1" height="1" x="11" y="7" fill="hsl(205, 64%, 62%)"/>
      <rect width="1" height="1" x="12" y="7" fill="hsl(205, 50%, 79%)"/>
      <rect width="1" height="1" x="13" y="7" fill="hsl(0, 0%, 100%)"/>
      <rect width="1" height="1" x="14" y="7" fill="hsl(0, 0%, 100%)"/>
      <rect width="1" height="1" x="15" y="7" fill="hsl(205, 50%, 79%)"/>
      <rect width="1" height="1" x="16" y="7" fill="hsl(205, 50%, 79%)"/>
      <rect width="1" height="1" x="17" y="7" fill="hsl(205, 69%, 44%)"/>
      <rect width="1" height="1" x="2" y="8" fill="hsl(205, 64%, 62%)"/>
      <rect width="1" height="1" x="3" y="8" fill="hsl(205, 50%, 79%)"/>
      <rect width="1" height="1" x="4" y="8" fill="hsl(0, 0%, 100%)"/>
      <rect width="1" height="1" x="5" y="8" fill="hsl(0, 0%, 100%)"/>
      <rect width="1" height="1" x="6" y="8" fill="hsl(0, 0%, 100%)"/>
      <rect width="1" height="1" x="7" y="8" fill="hsl(0, 0%, 100%)"/>
      <rect width="1" height="1" x="8" y="8" fill="hsl(0, 0%, 100%)"/>
      <rect width="1" height="1" x="9" y="8" fill="hsl(205, 50%, 79%)"/>
      <rect width="1" height="1" x="10" y="8" fill="hsl(205, 64%, 62%)"/>
      <rect width="1" height="1" x="11" y="8" fill="hsl(205, 50%, 79%)"/>
      <rect width="1" height="1" x="12" y="8" fill="hsl(0, 0%, 100%)"/>
      <rect width="1" height="1" x="13" y="8" fill="hsl(0, 0%, 100%)"/>
      <rect width="1" height="1" x="14" y="8" fill="hsl(0, 0%, 100%)"/>
      <rect width="1" height="1" x="15" y="8" fill="hsl(0, 0%, 100%)"/>
      <rect width="1" height="1" x="16" y="8" fill="hsl(205, 50%, 79%)"/>
      <rect width="1" height="1" x="17" y="8" fill="hsl(205, 64%, 62%)"/>
      <rect width="1" height="1" x="2" y="9" fill="hsl(205, 69%, 44%)"/>
      <rect width="1" height="1" x="3" y="9" fill="hsl(205, 50%, 79%)"/>
      <rect width="1" height="1" x="4" y="9" fill="hsl(0, 0%, 100%)"/>
      <rect width="1" height="1" x="5" y="9" fill="hsl(0, 0%, 100%)"/>
      <rect width="1" height="1" x="6" y="9" fill="hsl(0, 0%, 100%)"/>
      <rect width="1" height="1" x="7" y="9" fill="hsl(0, 0%, 100%)"/>
      <rect width="1" height="1" x="8" y="9" fill="hsl(205, 50%, 79%)"/>
      <rect width="1" height="1" x="9" y="9" fill="hsl(205, 69%, 44%)"/>
      <rect width="1" height="1" x="10" y="9" fill="hsl(205, 50%, 79%)"/>
      <rect width="1" height="1" x="11" y="9" fill="hsl(0, 0%, 100%)"/>
      <rect width="1" height="1" x="12" y="9" fill="hsl(0, 0%, 100%)"/>
      <rect width="1" height="1" x="13" y="9" fill="hsl(0, 0%, 100%)"/>
      <rect width="1" height="1" x="14" y="9" fill="hsl(0, 0%, 100%)"/>
      <rect width="1" height="1" x="15" y="9" fill="hsl(0, 0%, 100%)"/>
      <rect width="1" height="1" x="16" y="9" fill="hsl(205, 50%, 79%)"/>
      <rect width="1" height="1" x="17" y="9" fill="hsl(205, 69%, 44%)"/>
      <rect width="1" height="1" x="2" y="10" fill="hsl(205, 69%, 44%)"/>
      <rect width="1" height="1" x="3" y="10" fill="hsl(205, 50%, 79%)"/>
      <rect width="1" height="1" x="4" y="10" fill="hsl(0, 0%, 100%)"/>
      <rect width="1" height="1" x="5" y="10" fill="hsl(0, 0%, 100%)"/>
      <rect width="1" height="1" x="6" y="10" fill="hsl(0, 0%, 100%)"/>
      <rect width="1" height="1" x="7" y="10" fill="hsl(205, 50%, 79%)"/>
      <rect width="1" height="1" x="8" y="10" fill="hsl(205, 64%, 62%)"/>
      <rect width="1" height="1" x="9" y="10" fill="hsl(205, 50%, 79%)"/>
      <rect width="1" height="1" x="10" y="10" fill="hsl(0, 0%, 100%)"/>
      <rect width="1" height="1" x="11" y="10" fill="hsl(0, 0%, 100%)"/>
      <rect width="1" height="1" x="12" y="10" fill="hsl(0, 0%, 100%)"/>
      <rect width="1" height="1" x="13" y="10" fill="hsl(0, 0%, 100%)"/>
      <rect width="1" height="1" x="14" y="10" fill="hsl(0, 0%, 100%)"/>
      <rect width="1" height="1" x="15" y="10" fill="hsl(0, 0%, 100%)"/>
      <rect width="1" height="1" x="16" y="10" fill="hsl(205, 50%, 79%)"/>
      <rect width="1" height="1" x="17" y="10" fill="hsl(205, 64%, 62%)"/>
      <rect width="1" height="1" x="2" y="11" fill="hsl(205, 64%, 62%)"/>
      <rect width="1" height="1" x="3" y="11" fill="hsl(205, 50%, 79%)"/>
      <rect width="1" height="1" x="4" y="11" fill="hsl(0, 0%, 100%)"/>
      <rect width="1" height="1" x="5" y="11" fill="hsl(0, 0%, 100%)"/>
      <rect width="1" height="1" x="6" y="11" fill="hsl(205, 50%, 79%)"/>
      <rect width="1" height="1" x="7" y="11" fill="hsl(205, 64%, 62%)"/>
      <rect width="1" height="1" x="8" y="11" fill="hsl(205, 50%, 79%)"/>
      <rect width="1" height="1" x="9" y="11" fill="hsl(0, 0%, 100%)"/>
      <rect width="1" height="1" x="10" y="11" fill="hsl(0, 0%, 100%)"/>
      <rect width="1" height="1" x="11" y="11" fill="hsl(0, 0%, 100%)"/>
      <rect width="1" height="1" x="12" y="11" fill="hsl(0, 0%, 100%)"/>
      <rect width="1" height="1" x="13" y="11" fill="hsl(0, 0%, 100%)"/>
      <rect width="1" height="1" x="14" y="11" fill="hsl(0, 0%, 100%)"/>
      <rect width="1" height="1" x="15" y="11" fill="hsl(0, 0%, 100%)"/>
      <rect width="1" height="1" x="16" y="11" fill="hsl(205, 50%, 79%)"/>
      <rect width="1" height="1" x="17" y="11" fill="hsl(205, 69%, 44%)"/>
      <rect width="1" height="1" x="2" y="12" fill="hsl(205, 64%, 62%)"/>
      <rect width="1" height="1" x="3" y="12" fill="hsl(205, 50%, 79%)"/>
      <rect width="1" height="1" x="4" y="12" fill="hsl(0, 0%, 100%)"/>
      <rect width="1" height="1" x="5" y="12" fill="hsl(205, 50%, 79%)"/>
      <rect width="1" height="1" x="6" y="12" fill="hsl(205, 69%, 44%)"/>
      <rect width="1" height="1" x="7" y="12" fill="hsl(205, 50%, 79%)"/>
      <rect width="1" height="1" x="8" y="12" fill="hsl(0, 0%, 100%)"/>
      <rect width="1" height="1" x="9" y="12" fill="hsl(0, 0%, 100%)"/>
      <rect width="1" height="1" x="10" y="12" fill="hsl(0, 0%, 100%)"/>
      <rect width="1" height="1" x="11" y="12" fill="hsl(0, 0%, 100%)"/>
      <rect width="1" height="1" x="12" y="12" fill="hsl(0, 0%, 100%)"/>
      <rect width="1" height="1" x="13" y="12" fill="hsl(0, 0%, 100%)"/>
      <rect width="1" height="1" x="14" y="12" fill="hsl(0, 0%, 100%)"/>
      <rect width="1" height="1" x="15" y="12" fill="hsl(0, 0%, 100%)"/>
      <rect width="1" height="1" x="16" y="12" fill="hsl(205, 50%, 79%)"/>
      <rect width="1" height="1" x="17" y="12" fill="hsl(205, 64%, 62%)"/>
      <rect width="1" height="1" x="3" y="13" fill="hsl(205, 64%, 62%)"/>
      <rect width="1" height="1" x="4" y="13" fill="hsl(205, 50%, 79%)"/>
      <rect width="1" height="1" x="5" y="13" fill="hsl(205, 64%, 62%)"/>
      <rect width="1" height="1" x="6" y="13" fill="hsl(205, 50%, 79%)"/>
      <rect width="1" height="1" x="7" y="13" fill="hsl(0, 0%, 100%)"/>
      <rect width="1" height="1" x="8" y="13" fill="hsl(0, 0%, 100%)"/>
      <rect width="1" height="1" x="9" y="13" fill="hsl(0, 0%, 100%)"/>
      <rect width="1" height="1" x="10" y="13" fill="hsl(0, 0%, 100%)"/>
      <rect width="1" height="1" x="11" y="13" fill="hsl(0, 0%, 100%)"/>
      <rect width="1" height="1" x="12" y="13" fill="hsl(0, 0%, 100%)"/>
      <rect width="1" height="1" x="13" y="13" fill="hsl(0, 0%, 100%)"/>
      <rect width="1" height="1" x="14" y="13" fill="hsl(0, 0%, 100%)"/>
      <rect width="1" height="1" x="15" y="13" fill="hsl(205, 50%, 79%)"/>
      <rect width="1" height="1" x="16" y="13" fill="hsl(205, 64%, 62%)"/>
      <rect width="1" height="1" x="4" y="14" fill="hsl(205, 64%, 62%)"/>
      <rect width="1" height="1" x="5" y="14" fill="hsl(205, 50%, 79%)"/>
      <rect width="1" height="1" x="6" y="14" fill="hsl(0, 0%, 100%)"/>
      <rect width="1" height="1" x="7" y="14" fill="hsl(0, 0%, 100%)"/>
      <rect width="1" height="1" x="8" y="14" fill="hsl(0, 0%, 100%)"/>
      <rect width="1" height="1" x="9" y="14" fill="hsl(0, 0%, 100%)"/>
      <rect width="1" height="1" x="10" y="14" fill="hsl(0, 0%, 100%)"/>
      <rect width="1" height="1" x="11" y="14" fill="hsl(0, 0%, 100%)"/>
      <rect width="1" height="1" x="12" y="14" fill="hsl(0, 0%, 100%)"/>
      <rect width="1" height="1" x="13" y="14" fill="hsl(0, 0%, 100%)"/>
      <rect width="1" height="1" x="14" y="14" fill="hsl(205, 50%, 79%)"/>
      <rect width="1" height="1" x="15" y="14" fill="hsl(205, 64%, 62%)"/>
      <rect width="1" height="1" x="5" y="15" fill="hsl(205, 64%, 62%)"/>
      <rect width="1" height="1" x="6" y="15" fill="hsl(205, 50%, 79%)"/>
      <rect width="1" height="1" x="7" y="15" fill="hsl(205, 50%, 79%)"/>
      <rect width="1" height="1" x="8" y="15" fill="hsl(0, 0%, 100%)"/>
      <rect width="1" height="1" x="9" y="15" fill="hsl(0, 0%, 100%)"/>
      <rect width="1" height="1" x="10" y="15" fill="hsl(0, 0%, 100%)"/>
      <rect width="1" height="1" x="11" y="15" fill="hsl(0, 0%, 100%)"/>
      <rect width="1" height="1" x="12" y="15" fill="hsl(205, 50%, 79%)"/>
      <rect width="1" height="1" x="13" y="15" fill="hsl(205, 50%, 79%)"/>
      <rect width="1" height="1" x="14" y="15" fill="hsl(205, 64%, 62%)"/>
      <rect width="1" height="1" x="6" y="16" fill="hsl(205, 64%, 62%)"/>
      <rect width="1" height="1" x="7" y="16" fill="hsl(205, 64%, 62%)"/>
      <rect width="1" height="1" x="8" y="16" fill="hsl(205, 50%, 79%)"/>
      <rect width="1" height="1" x="9" y="16" fill="hsl(205, 50%, 79%)"/>
      <rect width="1" height="1" x="10" y="16" fill="hsl(205, 50%, 79%)"/>
      <rect width="1" height="1" x="11" y="16" fill="hsl(205, 50%, 79%)"/>
      <rect width="1" height="1" x="12" y="16" fill="hsl(205, 64%, 62%)"/>
      <rect width="1" height="1" x="13" y="16" fill="hsl(205, 64%, 62%)"/>
      <rect width="1" height="1" x="8" y="17" fill="hsl(205, 64%, 62%)"/>
      <rect width="1" height="1" x="9" y="17" fill="hsl(205, 69%, 44%)"/>
      <rect width="1" height="1" x="10" y="17" fill="hsl(205, 69%, 44%)"/>
      <rect width="1" height="1" x="11" y="17" fill="hsl(205, 64%, 62%)"/>
    </pattern>
  </defs>
  <path fill="url(#pppixelate-pattern)" style="" d="M 5.601 -2.475 L 767.405 4.214 L 787.473 736 L 43.804 769.446 L -16.399 19.525 C -16.399 7.375 -6.549 -2.475 5.601 -2.475 Z"/>
</svg>