<?xml version="1.0" encoding="utf-8"?>
<svg viewBox="0 0 32 16" width="32px" height="16px" fill="none" xmlns="http://www.w3.org/2000/svg">
  <path d="M4 6V7H6V6H7V3H6V2H4V3H3V6H4Z" fill="#E0DDFF"/>
  <path d="M4 4V2H6V4H4Z" style="fill: rgb(255, 33, 33);"/>
  <path d="M10 6V7H12V6H13V3H12V2H10V3H9V6H10Z" fill="#E0DDFF"/>
  <path d="M10 4V2H12V4H10Z" style="fill: rgb(255, 33, 33);"/>
  <path d="M20 6V7H22V6H23V3H22V2H20V3H19V6H20Z" fill="#E0DDFF"/>
  <path d="M20 4V2H22V4H20Z" style="fill: rgb(255, 33, 33);"/>
  <path d="M26 6V7H28V6H29V3H28V2H26V3H25V6H26Z" fill="#E0DDFF"/>
  <path d="M26 4V2H28V4H26Z" style="fill: rgb(255, 33, 33);"/>
</svg>