<?xml version="1.0" encoding="utf-8"?>
<svg viewBox="0 0 32 16" width="32px" height="16px" fill="none" xmlns="http://www.w3.org/2000/svg">
  <path d="M5 8V9H7V8H8V5H7V4H5V5H4V8H5Z" fill="#E0DDFF"/>
  <path d="M6 8V6H8V8H6Z" style="fill: rgb(255, 33, 33);"/>
  <path d="M11 8V9H13V8H14V5H13V4H11V5H10V8H11Z" fill="#E0DDFF"/>
  <path d="M12 8V6H14V8H12Z" style="fill: rgb(255, 33, 33);"/>
  <path d="M21 8V9H23V8H24V5H23V4H21V5H20V8H21Z" fill="#E0DDFF"/>
  <path d="M22 8V6H24V8H22Z" style="fill: rgb(255, 33, 33);"/>
  <path d="M27 8V9H29V8H30V5H29V4H27V5H26V8H27Z" fill="#E0DDFF"/>
  <path d="M28 8V6H30V8H28Z" style="fill: rgb(255, 33, 33);"/>
</svg>