<?xml version="1.0" encoding="utf-8"?>
<svg viewBox="0 0 32 16" fill="none" xmlns="http://www.w3.org/2000/svg" xmlns:xlink="http://www.w3.org/1999/xlink">
  <defs>
    <pattern id="pppixelate-pattern" width="20" height="20" patternUnits="userSpaceOnUse" patternTransform="matrix(0.850296, 0, 0, 0.850296, -0.741775, -0.317153)" shape-rendering="crispEdges">
      <rect width="1" height="1" x="12" y="2" fill="hsl(0, 0%, 0%)"/>
      <rect width="1" height="1" x="13" y="2" fill="hsl(0, 0%, 0%)"/>
      <rect width="1" height="1" x="14" y="2" fill="hsl(0, 0%, 0%)"/>
      <rect width="1" height="1" x="15" y="2" fill="hsl(0, 0%, 0%)"/>
      <rect width="1" height="1" x="11" y="3" fill="hsl(0, 0%, 0%)"/>
      <rect width="1" height="1" x="12" y="3" fill="hsl(0, 0%, 100%)"/>
      <rect width="1" height="1" x="13" y="3" fill="hsl(0, 0%, 100%)"/>
      <rect width="1" height="1" x="14" y="3" fill="hsl(0, 0%, 100%)"/>
      <rect width="1" height="1" x="15" y="3" fill="hsl(0, 0%, 100%)"/>
      <rect width="1" height="1" x="16" y="3" fill="hsl(0, 0%, 0%)"/>
      <rect width="1" height="1" x="10" y="4" fill="hsl(0, 0%, 0%)"/>
      <rect width="1" height="1" x="11" y="4" fill="hsl(0, 0%, 100%)"/>
      <rect width="1" height="1" x="12" y="4" fill="hsl(0, 0%, 100%)"/>
      <rect width="1" height="1" x="13" y="4" fill="hsl(0, 0%, 100%)"/>
      <rect width="1" height="1" x="14" y="4" fill="hsl(0, 0%, 100%)"/>
      <rect width="1" height="1" x="15" y="4" fill="hsl(0, 0%, 90%)"/>
      <rect width="1" height="1" x="16" y="4" fill="hsl(0, 0%, 100%)"/>
      <rect width="1" height="1" x="17" y="4" fill="hsl(0, 0%, 0%)"/>
      <rect width="1" height="1" x="9" y="5" fill="hsl(0, 0%, 0%)"/>
      <rect width="1" height="1" x="10" y="5" fill="hsl(0, 0%, 100%)"/>
      <rect width="1" height="1" x="11" y="5" fill="hsl(0, 0%, 100%)"/>
      <rect width="1" height="1" x="12" y="5" fill="hsl(0, 0%, 100%)"/>
      <rect width="1" height="1" x="13" y="5" fill="hsl(0, 0%, 100%)"/>
      <rect width="1" height="1" x="14" y="5" fill="hsl(0, 0%, 90%)"/>
      <rect width="1" height="1" x="15" y="5" fill="hsl(0, 0%, 100%)"/>
      <rect width="1" height="1" x="16" y="5" fill="hsl(0, 0%, 90%)"/>
      <rect width="1" height="1" x="17" y="5" fill="hsl(0, 0%, 0%)"/>
      <rect width="1" height="1" x="8" y="6" fill="hsl(0, 0%, 0%)"/>
      <rect width="1" height="1" x="9" y="6" fill="hsl(0, 0%, 100%)"/>
      <rect width="1" height="1" x="10" y="6" fill="hsl(0, 0%, 100%)"/>
      <rect width="1" height="1" x="11" y="6" fill="hsl(0, 0%, 100%)"/>
      <rect width="1" height="1" x="12" y="6" fill="hsl(0, 0%, 100%)"/>
      <rect width="1" height="1" x="13" y="6" fill="hsl(0, 0%, 90%)"/>
      <rect width="1" height="1" x="14" y="6" fill="hsl(0, 0%, 100%)"/>
      <rect width="1" height="1" x="15" y="6" fill="hsl(0, 0%, 90%)"/>
      <rect width="1" height="1" x="16" y="6" fill="hsl(0, 0%, 90%)"/>
      <rect width="1" height="1" x="17" y="6" fill="hsl(0, 0%, 0%)"/>
      <rect width="1" height="1" x="7" y="7" fill="hsl(0, 0%, 0%)"/>
      <rect width="1" height="1" x="8" y="7" fill="hsl(0, 0%, 100%)"/>
      <rect width="1" height="1" x="9" y="7" fill="hsl(0, 0%, 100%)"/>
      <rect width="1" height="1" x="10" y="7" fill="hsl(0, 0%, 100%)"/>
      <rect width="1" height="1" x="11" y="7" fill="hsl(0, 0%, 100%)"/>
      <rect width="1" height="1" x="12" y="7" fill="hsl(0, 0%, 90%)"/>
      <rect width="1" height="1" x="13" y="7" fill="hsl(0, 0%, 100%)"/>
      <rect width="1" height="1" x="14" y="7" fill="hsl(0, 0%, 90%)"/>
      <rect width="1" height="1" x="15" y="7" fill="hsl(0, 0%, 90%)"/>
      <rect width="1" height="1" x="16" y="7" fill="hsl(0, 0%, 90%)"/>
      <rect width="1" height="1" x="17" y="7" fill="hsl(0, 0%, 0%)"/>
      <rect width="1" height="1" x="6" y="8" fill="hsl(0, 0%, 0%)"/>
      <rect width="1" height="1" x="7" y="8" fill="hsl(353, 98%, 41%)"/>
      <rect width="1" height="1" x="8" y="8" fill="hsl(0, 0%, 100%)"/>
      <rect width="1" height="1" x="9" y="8" fill="hsl(0, 0%, 100%)"/>
      <rect width="1" height="1" x="10" y="8" fill="hsl(0, 0%, 100%)"/>
      <rect width="1" height="1" x="11" y="8" fill="hsl(0, 0%, 90%)"/>
      <rect width="1" height="1" x="12" y="8" fill="hsl(0, 0%, 100%)"/>
      <rect width="1" height="1" x="13" y="8" fill="hsl(0, 0%, 90%)"/>
      <rect width="1" height="1" x="14" y="8" fill="hsl(0, 0%, 90%)"/>
      <rect width="1" height="1" x="15" y="8" fill="hsl(0, 0%, 90%)"/>
      <rect width="1" height="1" x="16" y="8" fill="hsl(0, 0%, 0%)"/>
      <rect width="1" height="1" x="5" y="9" fill="hsl(0, 0%, 0%)"/>
      <rect width="1" height="1" x="6" y="9" fill="hsl(353, 98%, 41%)"/>
      <rect width="1" height="1" x="7" y="9" fill="hsl(353, 98%, 41%)"/>
      <rect width="1" height="1" x="8" y="9" fill="hsl(353, 98%, 41%)"/>
      <rect width="1" height="1" x="9" y="9" fill="hsl(0, 0%, 100%)"/>
      <rect width="1" height="1" x="10" y="9" fill="hsl(0, 0%, 90%)"/>
      <rect width="1" height="1" x="11" y="9" fill="hsl(0, 0%, 100%)"/>
      <rect width="1" height="1" x="12" y="9" fill="hsl(0, 0%, 90%)"/>
      <rect width="1" height="1" x="13" y="9" fill="hsl(0, 0%, 90%)"/>
      <rect width="1" height="1" x="14" y="9" fill="hsl(0, 0%, 90%)"/>
      <rect width="1" height="1" x="15" y="9" fill="hsl(0, 0%, 0%)"/>
      <rect width="1" height="1" x="4" y="10" fill="hsl(0, 0%, 0%)"/>
      <rect width="1" height="1" x="5" y="10" fill="hsl(353, 98%, 41%)"/>
      <rect width="1" height="1" x="6" y="10" fill="hsl(353, 98%, 41%)"/>
      <rect width="1" height="1" x="7" y="10" fill="hsl(353, 98%, 41%)"/>
      <rect width="1" height="1" x="8" y="10" fill="hsl(353, 98%, 41%)"/>
      <rect width="1" height="1" x="9" y="10" fill="hsl(353, 100%, 33%)"/>
      <rect width="1" height="1" x="10" y="10" fill="hsl(0, 0%, 100%)"/>
      <rect width="1" height="1" x="11" y="10" fill="hsl(0, 0%, 90%)"/>
      <rect width="1" height="1" x="12" y="10" fill="hsl(0, 0%, 90%)"/>
      <rect width="1" height="1" x="13" y="10" fill="hsl(0, 0%, 90%)"/>
      <rect width="1" height="1" x="14" y="10" fill="hsl(0, 0%, 0%)"/>
      <rect width="1" height="1" x="3" y="11" fill="hsl(0, 0%, 0%)"/>
      <rect width="1" height="1" x="4" y="11" fill="hsl(353, 98%, 41%)"/>
      <rect width="1" height="1" x="5" y="11" fill="hsl(353, 98%, 41%)"/>
      <rect width="1" height="1" x="6" y="11" fill="hsl(353, 98%, 41%)"/>
      <rect width="1" height="1" x="7" y="11" fill="hsl(353, 98%, 41%)"/>
      <rect width="1" height="1" x="8" y="11" fill="hsl(353, 100%, 33%)"/>
      <rect width="1" height="1" x="9" y="11" fill="hsl(353, 98%, 41%)"/>
      <rect width="1" height="1" x="10" y="11" fill="hsl(353, 100%, 33%)"/>
      <rect width="1" height="1" x="11" y="11" fill="hsl(0, 0%, 90%)"/>
      <rect width="1" height="1" x="12" y="11" fill="hsl(0, 0%, 90%)"/>
      <rect width="1" height="1" x="13" y="11" fill="hsl(0, 0%, 0%)"/>
      <rect width="1" height="1" x="2" y="12" fill="hsl(0, 0%, 0%)"/>
      <rect width="1" height="1" x="3" y="12" fill="hsl(353, 98%, 41%)"/>
      <rect width="1" height="1" x="4" y="12" fill="hsl(353, 98%, 41%)"/>
      <rect width="1" height="1" x="5" y="12" fill="hsl(0, 0%, 100%)"/>
      <rect width="1" height="1" x="6" y="12" fill="hsl(353, 98%, 41%)"/>
      <rect width="1" height="1" x="7" y="12" fill="hsl(353, 100%, 33%)"/>
      <rect width="1" height="1" x="8" y="12" fill="hsl(353, 98%, 41%)"/>
      <rect width="1" height="1" x="9" y="12" fill="hsl(353, 100%, 33%)"/>
      <rect width="1" height="1" x="10" y="12" fill="hsl(353, 100%, 33%)"/>
      <rect width="1" height="1" x="11" y="12" fill="hsl(353, 100%, 33%)"/>
      <rect width="1" height="1" x="12" y="12" fill="hsl(0, 0%, 0%)"/>
      <rect width="1" height="1" x="2" y="13" fill="hsl(0, 0%, 0%)"/>
      <rect width="1" height="1" x="3" y="13" fill="hsl(353, 98%, 41%)"/>
      <rect width="1" height="1" x="4" y="13" fill="hsl(0, 0%, 100%)"/>
      <rect width="1" height="1" x="5" y="13" fill="hsl(353, 98%, 41%)"/>
      <rect width="1" height="1" x="6" y="13" fill="hsl(353, 100%, 33%)"/>
      <rect width="1" height="1" x="7" y="13" fill="hsl(353, 98%, 41%)"/>
      <rect width="1" height="1" x="8" y="13" fill="hsl(353, 100%, 33%)"/>
      <rect width="1" height="1" x="9" y="13" fill="hsl(353, 100%, 33%)"/>
      <rect width="1" height="1" x="10" y="13" fill="hsl(353, 100%, 33%)"/>
      <rect width="1" height="1" x="11" y="13" fill="hsl(0, 0%, 0%)"/>
      <rect width="1" height="1" x="2" y="14" fill="hsl(0, 0%, 0%)"/>
      <rect width="1" height="1" x="3" y="14" fill="hsl(353, 98%, 41%)"/>
      <rect width="1" height="1" x="4" y="14" fill="hsl(0, 0%, 100%)"/>
      <rect width="1" height="1" x="5" y="14" fill="hsl(353, 100%, 33%)"/>
      <rect width="1" height="1" x="6" y="14" fill="hsl(353, 98%, 41%)"/>
      <rect width="1" height="1" x="7" y="14" fill="hsl(353, 100%, 33%)"/>
      <rect width="1" height="1" x="8" y="14" fill="hsl(353, 100%, 33%)"/>
      <rect width="1" height="1" x="9" y="14" fill="hsl(353, 100%, 33%)"/>
      <rect width="1" height="1" x="10" y="14" fill="hsl(0, 0%, 0%)"/>
      <rect width="1" height="1" x="2" y="15" fill="hsl(0, 0%, 0%)"/>
      <rect width="1" height="1" x="3" y="15" fill="hsl(353, 98%, 41%)"/>
      <rect width="1" height="1" x="4" y="15" fill="hsl(353, 100%, 33%)"/>
      <rect width="1" height="1" x="5" y="15" fill="hsl(353, 98%, 41%)"/>
      <rect width="1" height="1" x="6" y="15" fill="hsl(353, 100%, 33%)"/>
      <rect width="1" height="1" x="7" y="15" fill="hsl(353, 100%, 33%)"/>
      <rect width="1" height="1" x="8" y="15" fill="hsl(353, 100%, 33%)"/>
      <rect width="1" height="1" x="9" y="15" fill="hsl(0, 0%, 0%)"/>
      <rect width="1" height="1" x="3" y="16" fill="hsl(0, 0%, 0%)"/>
      <rect width="1" height="1" x="4" y="16" fill="hsl(353, 98%, 41%)"/>
      <rect width="1" height="1" x="5" y="16" fill="hsl(353, 100%, 33%)"/>
      <rect width="1" height="1" x="6" y="16" fill="hsl(353, 100%, 33%)"/>
      <rect width="1" height="1" x="7" y="16" fill="hsl(353, 100%, 33%)"/>
      <rect width="1" height="1" x="8" y="16" fill="hsl(0, 0%, 0%)"/>
      <rect width="1" height="1" x="4" y="17" fill="hsl(0, 0%, 0%)"/>
      <rect width="1" height="1" x="5" y="17" fill="hsl(0, 0%, 0%)"/>
      <rect width="1" height="1" x="6" y="17" fill="hsl(0, 0%, 0%)"/>
      <rect width="1" height="1" x="7" y="17" fill="hsl(0, 0%, 0%)"/>
    </pattern>
    <pattern id="pattern-1" width="20" height="20" patternUnits="userSpaceOnUse" patternTransform="matrix(0.869007, 0, 0, 0.869007, 16.037153, -0.763768)" shape-rendering="crispEdges">
      <rect width="1" height="1" x="12" y="2" fill="hsl(0, 0%, 45%)"/>
      <rect width="1" height="1" x="13" y="2" fill="hsl(0, 0%, 45%)"/>
      <rect width="1" height="1" x="14" y="2" fill="hsl(0, 0%, 45%)"/>
      <rect width="1" height="1" x="15" y="2" fill="hsl(0, 0%, 45%)"/>
      <rect width="1" height="1" x="11" y="3" fill="hsl(0, 0%, 45%)"/>
      <rect width="1" height="1" x="12" y="3" fill="hsl(0, 0%, 100%)"/>
      <rect width="1" height="1" x="13" y="3" fill="hsl(0, 0%, 100%)"/>
      <rect width="1" height="1" x="14" y="3" fill="hsl(0, 0%, 100%)"/>
      <rect width="1" height="1" x="15" y="3" fill="hsl(0, 0%, 100%)"/>
      <rect width="1" height="1" x="16" y="3" fill="hsl(0, 0%, 45%)"/>
      <rect width="1" height="1" x="10" y="4" fill="hsl(0, 0%, 45%)"/>
      <rect width="1" height="1" x="11" y="4" fill="hsl(0, 0%, 100%)"/>
      <rect width="1" height="1" x="12" y="4" fill="hsl(0, 0%, 100%)"/>
      <rect width="1" height="1" x="13" y="4" fill="hsl(0, 0%, 100%)"/>
      <rect width="1" height="1" x="14" y="4" fill="hsl(0, 0%, 100%)"/>
      <rect width="1" height="1" x="15" y="4" fill="hsl(0, 0%, 90%)"/>
      <rect width="1" height="1" x="16" y="4" fill="hsl(0, 0%, 100%)"/>
      <rect width="1" height="1" x="17" y="4" fill="hsl(0, 0%, 45%)"/>
      <rect width="1" height="1" x="9" y="5" fill="hsl(0, 0%, 45%)"/>
      <rect width="1" height="1" x="10" y="5" fill="hsl(0, 0%, 100%)"/>
      <rect width="1" height="1" x="11" y="5" fill="hsl(0, 0%, 100%)"/>
      <rect width="1" height="1" x="12" y="5" fill="hsl(0, 0%, 100%)"/>
      <rect width="1" height="1" x="13" y="5" fill="hsl(0, 0%, 100%)"/>
      <rect width="1" height="1" x="14" y="5" fill="hsl(0, 0%, 90%)"/>
      <rect width="1" height="1" x="15" y="5" fill="hsl(0, 0%, 100%)"/>
      <rect width="1" height="1" x="16" y="5" fill="hsl(0, 0%, 90%)"/>
      <rect width="1" height="1" x="17" y="5" fill="hsl(0, 0%, 45%)"/>
      <rect width="1" height="1" x="8" y="6" fill="hsl(0, 0%, 45%)"/>
      <rect width="1" height="1" x="9" y="6" fill="hsl(0, 0%, 100%)"/>
      <rect width="1" height="1" x="10" y="6" fill="hsl(0, 0%, 100%)"/>
      <rect width="1" height="1" x="11" y="6" fill="hsl(0, 0%, 100%)"/>
      <rect width="1" height="1" x="12" y="6" fill="hsl(0, 0%, 100%)"/>
      <rect width="1" height="1" x="13" y="6" fill="hsl(0, 0%, 90%)"/>
      <rect width="1" height="1" x="14" y="6" fill="hsl(0, 0%, 100%)"/>
      <rect width="1" height="1" x="15" y="6" fill="hsl(0, 0%, 90%)"/>
      <rect width="1" height="1" x="16" y="6" fill="hsl(0, 0%, 90%)"/>
      <rect width="1" height="1" x="17" y="6" fill="hsl(0, 0%, 45%)"/>
      <rect width="1" height="1" x="7" y="7" fill="hsl(0, 0%, 45%)"/>
      <rect width="1" height="1" x="8" y="7" fill="hsl(0, 0%, 100%)"/>
      <rect width="1" height="1" x="9" y="7" fill="hsl(0, 0%, 100%)"/>
      <rect width="1" height="1" x="10" y="7" fill="hsl(0, 0%, 100%)"/>
      <rect width="1" height="1" x="11" y="7" fill="hsl(0, 0%, 100%)"/>
      <rect width="1" height="1" x="12" y="7" fill="hsl(0, 0%, 90%)"/>
      <rect width="1" height="1" x="13" y="7" fill="hsl(0, 0%, 100%)"/>
      <rect width="1" height="1" x="14" y="7" fill="hsl(0, 0%, 90%)"/>
      <rect width="1" height="1" x="15" y="7" fill="hsl(0, 0%, 90%)"/>
      <rect width="1" height="1" x="16" y="7" fill="hsl(0, 0%, 90%)"/>
      <rect width="1" height="1" x="17" y="7" fill="hsl(0, 0%, 45%)"/>
      <rect width="1" height="1" x="6" y="8" fill="hsl(353, 100%, 24%)"/>
      <rect width="1" height="1" x="7" y="8" fill="hsl(353, 98%, 41%)"/>
      <rect width="1" height="1" x="8" y="8" fill="hsl(0, 0%, 100%)"/>
      <rect width="1" height="1" x="9" y="8" fill="hsl(0, 0%, 100%)"/>
      <rect width="1" height="1" x="10" y="8" fill="hsl(0, 0%, 100%)"/>
      <rect width="1" height="1" x="11" y="8" fill="hsl(0, 0%, 90%)"/>
      <rect width="1" height="1" x="12" y="8" fill="hsl(0, 0%, 100%)"/>
      <rect width="1" height="1" x="13" y="8" fill="hsl(0, 0%, 90%)"/>
      <rect width="1" height="1" x="14" y="8" fill="hsl(0, 0%, 90%)"/>
      <rect width="1" height="1" x="15" y="8" fill="hsl(0, 0%, 90%)"/>
      <rect width="1" height="1" x="16" y="8" fill="hsl(0, 0%, 45%)"/>
      <rect width="1" height="1" x="5" y="9" fill="hsl(353, 100%, 24%)"/>
      <rect width="1" height="1" x="6" y="9" fill="hsl(353, 98%, 41%)"/>
      <rect width="1" height="1" x="7" y="9" fill="hsl(353, 98%, 41%)"/>
      <rect width="1" height="1" x="8" y="9" fill="hsl(353, 98%, 41%)"/>
      <rect width="1" height="1" x="9" y="9" fill="hsl(0, 0%, 100%)"/>
      <rect width="1" height="1" x="10" y="9" fill="hsl(0, 0%, 90%)"/>
      <rect width="1" height="1" x="11" y="9" fill="hsl(0, 0%, 100%)"/>
      <rect width="1" height="1" x="12" y="9" fill="hsl(0, 0%, 90%)"/>
      <rect width="1" height="1" x="13" y="9" fill="hsl(0, 0%, 90%)"/>
      <rect width="1" height="1" x="14" y="9" fill="hsl(0, 0%, 90%)"/>
      <rect width="1" height="1" x="15" y="9" fill="hsl(0, 0%, 45%)"/>
      <rect width="1" height="1" x="4" y="10" fill="hsl(353, 100%, 24%)"/>
      <rect width="1" height="1" x="5" y="10" fill="hsl(353, 98%, 41%)"/>
      <rect width="1" height="1" x="6" y="10" fill="hsl(353, 98%, 41%)"/>
      <rect width="1" height="1" x="7" y="10" fill="hsl(353, 98%, 41%)"/>
      <rect width="1" height="1" x="8" y="10" fill="hsl(353, 98%, 41%)"/>
      <rect width="1" height="1" x="9" y="10" fill="hsl(353, 100%, 33%)"/>
      <rect width="1" height="1" x="10" y="10" fill="hsl(0, 0%, 100%)"/>
      <rect width="1" height="1" x="11" y="10" fill="hsl(0, 0%, 90%)"/>
      <rect width="1" height="1" x="12" y="10" fill="hsl(0, 0%, 90%)"/>
      <rect width="1" height="1" x="13" y="10" fill="hsl(0, 0%, 90%)"/>
      <rect width="1" height="1" x="14" y="10" fill="hsl(0, 0%, 45%)"/>
      <rect width="1" height="1" x="3" y="11" fill="hsl(353, 100%, 24%)"/>
      <rect width="1" height="1" x="4" y="11" fill="hsl(353, 98%, 41%)"/>
      <rect width="1" height="1" x="5" y="11" fill="hsl(353, 98%, 41%)"/>
      <rect width="1" height="1" x="6" y="11" fill="hsl(353, 98%, 41%)"/>
      <rect width="1" height="1" x="7" y="11" fill="hsl(353, 98%, 41%)"/>
      <rect width="1" height="1" x="8" y="11" fill="hsl(353, 100%, 33%)"/>
      <rect width="1" height="1" x="9" y="11" fill="hsl(353, 98%, 41%)"/>
      <rect width="1" height="1" x="10" y="11" fill="hsl(353, 100%, 33%)"/>
      <rect width="1" height="1" x="11" y="11" fill="hsl(0, 0%, 90%)"/>
      <rect width="1" height="1" x="12" y="11" fill="hsl(0, 0%, 90%)"/>
      <rect width="1" height="1" x="13" y="11" fill="hsl(0, 0%, 45%)"/>
      <rect width="1" height="1" x="2" y="12" fill="hsl(353, 100%, 24%)"/>
      <rect width="1" height="1" x="3" y="12" fill="hsl(353, 98%, 41%)"/>
      <rect width="1" height="1" x="4" y="12" fill="hsl(353, 98%, 41%)"/>
      <rect width="1" height="1" x="5" y="12" fill="hsl(0, 0%, 100%)"/>
      <rect width="1" height="1" x="6" y="12" fill="hsl(353, 98%, 41%)"/>
      <rect width="1" height="1" x="7" y="12" fill="hsl(353, 100%, 33%)"/>
      <rect width="1" height="1" x="8" y="12" fill="hsl(353, 98%, 41%)"/>
      <rect width="1" height="1" x="9" y="12" fill="hsl(353, 100%, 33%)"/>
      <rect width="1" height="1" x="10" y="12" fill="hsl(353, 100%, 33%)"/>
      <rect width="1" height="1" x="11" y="12" fill="hsl(353, 100%, 33%)"/>
      <rect width="1" height="1" x="12" y="12" fill="hsl(0, 0%, 45%)"/>
      <rect width="1" height="1" x="2" y="13" fill="hsl(353, 100%, 24%)"/>
      <rect width="1" height="1" x="3" y="13" fill="hsl(353, 98%, 41%)"/>
      <rect width="1" height="1" x="4" y="13" fill="hsl(0, 0%, 100%)"/>
      <rect width="1" height="1" x="5" y="13" fill="hsl(353, 98%, 41%)"/>
      <rect width="1" height="1" x="6" y="13" fill="hsl(353, 100%, 33%)"/>
      <rect width="1" height="1" x="7" y="13" fill="hsl(353, 98%, 41%)"/>
      <rect width="1" height="1" x="8" y="13" fill="hsl(353, 100%, 33%)"/>
      <rect width="1" height="1" x="9" y="13" fill="hsl(353, 100%, 33%)"/>
      <rect width="1" height="1" x="10" y="13" fill="hsl(353, 100%, 33%)"/>
      <rect width="1" height="1" x="11" y="13" fill="hsl(353, 100%, 24%)"/>
      <rect width="1" height="1" x="2" y="14" fill="hsl(353, 100%, 24%)"/>
      <rect width="1" height="1" x="3" y="14" fill="hsl(353, 98%, 41%)"/>
      <rect width="1" height="1" x="4" y="14" fill="hsl(0, 0%, 100%)"/>
      <rect width="1" height="1" x="5" y="14" fill="hsl(353, 100%, 33%)"/>
      <rect width="1" height="1" x="6" y="14" fill="hsl(353, 98%, 41%)"/>
      <rect width="1" height="1" x="7" y="14" fill="hsl(353, 100%, 33%)"/>
      <rect width="1" height="1" x="8" y="14" fill="hsl(353, 100%, 33%)"/>
      <rect width="1" height="1" x="9" y="14" fill="hsl(353, 100%, 33%)"/>
      <rect width="1" height="1" x="10" y="14" fill="hsl(353, 100%, 24%)"/>
      <rect width="1" height="1" x="2" y="15" fill="hsl(353, 100%, 24%)"/>
      <rect width="1" height="1" x="3" y="15" fill="hsl(353, 98%, 41%)"/>
      <rect width="1" height="1" x="4" y="15" fill="hsl(353, 100%, 33%)"/>
      <rect width="1" height="1" x="5" y="15" fill="hsl(353, 98%, 41%)"/>
      <rect width="1" height="1" x="6" y="15" fill="hsl(353, 100%, 33%)"/>
      <rect width="1" height="1" x="7" y="15" fill="hsl(353, 100%, 33%)"/>
      <rect width="1" height="1" x="8" y="15" fill="hsl(353, 100%, 33%)"/>
      <rect width="1" height="1" x="9" y="15" fill="hsl(353, 100%, 24%)"/>
      <rect width="1" height="1" x="3" y="16" fill="hsl(353, 100%, 24%)"/>
      <rect width="1" height="1" x="4" y="16" fill="hsl(353, 98%, 41%)"/>
      <rect width="1" height="1" x="5" y="16" fill="hsl(353, 100%, 33%)"/>
      <rect width="1" height="1" x="6" y="16" fill="hsl(353, 100%, 33%)"/>
      <rect width="1" height="1" x="7" y="16" fill="hsl(353, 100%, 33%)"/>
      <rect width="1" height="1" x="8" y="16" fill="hsl(353, 100%, 24%)"/>
      <rect width="1" height="1" x="4" y="17" fill="hsl(353, 100%, 24%)"/>
      <rect width="1" height="1" x="5" y="17" fill="hsl(353, 100%, 24%)"/>
      <rect width="1" height="1" x="6" y="17" fill="hsl(353, 100%, 24%)"/>
      <rect width="1" height="1" x="7" y="17" fill="hsl(353, 100%, 24%)"/>
    </pattern>
    <pattern id="pattern-1-1" patternTransform="" xlink:href="#pattern-1"/>
  </defs>
  <path d="M1 7V15H2V14H3V13H4V14H5V15H7V13H9V15H11V14H12V13H13V14H14V15H15V7H14V4H13V3H12V2H10V1H6V2H4V3H3V4H2V7H1Z" fill="#2121FF" style="visibility: hidden;"/>
  <path d="M17 7V14H18V15H20V14H21V13H22V14H23V15H25V14H26V13H27V14H28V15H30V14H31V7H30V4H29V3H28V2H26V1H22V2H20V3H19V4H18V7H17Z" fill="#2121FF" style="visibility: hidden;"/>
  <path d="M5 5V7H7V5H5Z" fill="#FAB9B0" style="visibility: hidden;"/>
  <path d="M9 5V7H11V5H9Z" fill="#FAB9B0" style="visibility: hidden;"/>
  <path d="M21 5V7H23V5H21Z" fill="#FAB9B0" style="visibility: hidden;"/>
  <path d="M25 5V7H27V5H25Z" fill="#FAB9B0" style="visibility: hidden;"/>
  <path d="M2 11V10H3V9H5V10H7V9H9V10H11V9H13V10H14V11H13V10H11V11H9V10H7V11H5V10H3V11H2Z" fill="#FAB9B0" style="visibility: hidden;"/>
  <path d="M18 11V10H19V9H21V10H23V9H25V10H27V9H29V10H30V11H29V10H27V11H25V10H23V11H21V10H19V11H18Z" fill="#FAB9B0" style="visibility: hidden;"/>
  <rect width="81.628" height="38.434" fill="url(#pppixelate-pattern)" style="visibility: hidden;" x="-0.742" y="-0.318"/>
  <rect width="83.425" height="39.28" fill="url(#pattern-1)" style="" x="16.038" y="-0.764"/>
  <rect x="17.202" y="1.056" width="14.797" height="14.339" style="fill: rgb(255, 255, 255); visibility: hidden;"/>
  <rect width="59.193" height="27.871" style="fill: url(#pattern-1-1);" x="-87.576" y="41.018" transform="matrix(-0.00648, 0.999982, 0.999982, 0.00648, -52.73695, 86.858101)"/>
</svg>